<svg xmlns="http://www.w3.org/2000/svg" xmlns:xlink="http://www.w3.org/1999/xlink" width="500" zoomAndPan="magnify" viewBox="0 0 375 374.999991" height="500" preserveAspectRatio="xMidYMid meet" version="1.0"><defs><clipPath id="id1"><path d="M 57 129 L 207 129 L 207 259 L 57 259 Z M 57 129 " clip-rule="nonzero"/></clipPath><clipPath id="id2"><path d="M 57.191406 189.765625 L 93.898438 129.488281 L 206.925781 198.316406 L 170.214844 258.597656 Z M 57.191406 189.765625 " clip-rule="nonzero"/></clipPath><clipPath id="id3"><path d="M 148 27 L 353 27 L 353 205 L 148 205 Z M 148 27 " clip-rule="nonzero"/></clipPath><clipPath id="id4"><path d="M 148.027344 110.753906 L 198.5 27.871094 L 352.96875 121.933594 L 302.492188 204.820312 Z M 148.027344 110.753906 " clip-rule="nonzero"/></clipPath><clipPath id="id5"><path d="M 136.675781 200.84375 L 207.25 200.84375 L 207.25 333.175781 L 136.675781 333.175781 Z M 136.675781 200.84375 " clip-rule="nonzero"/></clipPath><clipPath id="id6"><path d="M 251.425781 125.339844 L 352.882812 125.339844 L 352.882812 315.019531 L 251.425781 315.019531 Z M 251.425781 125.339844 " clip-rule="nonzero"/></clipPath></defs><g clip-path="url(#id1)"><g clip-path="url(#id2)"><path fill="rgb(100%, 56.858826%, 30.198669%)" d="M 57.191406 189.765625 L 93.898438 129.488281 L 206.925781 198.316406 L 170.214844 258.597656 Z M 57.191406 189.765625 " fill-opacity="1" fill-rule="nonzero"/></g></g><g clip-path="url(#id3)"><g clip-path="url(#id4)"><path fill="rgb(100%, 56.858826%, 30.198669%)" d="M 148.027344 110.753906 L 198.5 27.871094 L 352.96875 121.933594 L 302.492188 204.820312 Z M 148.027344 110.753906 " fill-opacity="1" fill-rule="nonzero"/></g></g><g clip-path="url(#id5)"><path fill="rgb(32.159424%, 44.309998%, 100%)" d="M 207.25 333.175781 L 136.675781 333.175781 L 136.675781 200.84375 L 207.25 200.84375 Z M 207.25 333.175781 " fill-opacity="1" fill-rule="nonzero"/></g><g clip-path="url(#id6)"><path fill="rgb(32.159424%, 44.309998%, 100%)" d="M 352.882812 315.019531 L 251.425781 315.019531 L 251.425781 125.339844 L 352.882812 125.339844 Z M 352.882812 315.019531 " fill-opacity="1" fill-rule="nonzero"/></g><path fill="rgb(100%, 87.059021%, 34.899902%)" d="M 22.128906 168.191406 L 94.792969 130.015625 L 93.523438 212.089844 L 22.128906 168.191406 " fill-opacity="1" fill-rule="nonzero"/><path fill="rgb(32.159424%, 44.309998%, 100%)" d="M 22.394531 333.628906 L 93.945312 293.410156 L 95.007812 375.484375 L 22.394531 333.628906 " fill-opacity="1" fill-rule="nonzero"/><path fill="rgb(100%, 87.059021%, 34.899902%)" d="M 99.8125 82.675781 L 197.613281 28.886719 L 193.753906 140.433594 L 99.8125 82.675781 " fill-opacity="1" fill-rule="nonzero"/><path fill="rgb(32.159424%, 44.309998%, 100%)" d="M 136.289062 293.335938 L 206.867188 335.238281 L 136.289062 377.144531 L 136.289062 293.335938 " fill-opacity="1" fill-rule="nonzero"/><path fill="rgb(32.159424%, 44.309998%, 100%)" d="M 250.875 257.84375 L 352.328125 317.394531 L 250.875 376.945312 L 250.875 257.84375 " fill-opacity="1" fill-rule="nonzero"/></svg>